<?xml version="1.0" encoding="UTF-8"?>
<svg id="_レイヤー_1" data-name=" レイヤー 1" xmlns="http://www.w3.org/2000/svg" viewBox="0 0 267.3 128.1">
  <defs>
    <style>
      .cls-1 {
        fill: #fff;
      }
    </style>
  </defs>
  <path class="cls-1" d="m47.7,18.5c3.7-.4,7.2-2,8.4-5.8l-8.3-8.1c.7-1.2,5-1.9,6.2-1.9,6.3,0,11.9,4.6,16.1,8.9.4,2,.6,4.2.6,6.2,5.8-.7,11.4-1.6,17-2.6,2.2-.4,5.3-1.4,7.3-1.4,6.3,0,27.6,1.4,27.6,10.7,0,2.6-2.6,3.6-4.8,3.6-3.6,0-8.1-1.6-11.7-2.2-6.5-1.2-13.2-1.2-19.7-1.2s-13,.3-19.3,1.3c-15.4,2.6-46.1,12.5-59.3,20.4l-3.9-1.3-3.9-7.1c1.4-2.2,3.5-4.5,5.9-5.2l4.6,3.9c15.1-6.3,30.8-11.7,46.8-15.7l-9.6-2.5h0ZM12.1,91.8l3.2,4.5c5.3-2.2,11.2-4.8,15.8-8.4-1.9,3.6-3.9,7.5-6.3,10.8-1.3,1.7-3,3.3-4.2,5-2.9,4.6-2.6,8.2-8.4,10.7-3.9-2.7-4.8-8.8-5.2-13.1l5.1-9.5h0Zm40.8-16.3h-.3c-1.3,0-1.7-2.2-1.7-3,0-1.7.7-3.3,1.7-4.5,11.4-5.8,19.2-11.9,25.2-23.2-1.2-.3-2.4-.3-3.7-.3-8.1,0-24.8,4.8-30.1,10.9-3.7,1.1-2.7,11.4-6,13.5h-.8c-3,0-5.2-3.6-5.2-6.3,0-5.9,2.5-12.1,6.5-16.3l2.9,4.8c10.4-7.5,26.6-13,39.5-13h1.3c3.5,0,6.8.1,9.8,2.3,1.6,1.1,3.9,3.9,3.9,5.9,0,1.7-.7,3.3-1.7,4.6-8.3,1-15,6.5-20.6,12.2,1.6.7,4.9,2.2,5.5,4-1,4.2-7.9,6.3-11.5,7.5.7,7.6,1,15.4,1.7,23.2.3,2.2,1,4.6,1,6.6,0,1.6-.1,3.3-.1,4.9-.3,4.3-8.6,12.1-12.2,14-1-.3-1.9-.7-2.6-1.4-2.6-2.3-3.9-5.5-6.2-7.9-3.9-4.3-8.8-7.2-12.5-11.7,5.2,1.4,11.2,3,16.7,3,2.4,0,5-.6,6.5-2.7,1-4,1-8.5,1-12.5,0-5.5-.1-10.9-.1-16.3l-7.9,1.7h0Zm40,23.2c3.5,0,6.8-1.1,9.8-2.7.3-.6.4-1.1.4-1.7,0-4.6-6.9-10.1-10.7-12.1,10.7,0,27.5,8.5,27.5,20.9,0,3.6-.7,6.1-4.9,6.1-5.8,0-16.7-7.9-23-10.4l.9-.1h0Z"/>
  <path class="cls-1" d="m198.9,111.4c-.4.1-1,.3-1.6.3-3,0-4.3-3-4.6-5.8h-2c-5.9,0-11.9,1.3-17.7,2.4l-3,4.3c-2.9,0-3.9-7.6-3.9-9.8,0-.4,0-.9.1-1.4,1-8.4,2.3-17,2.3-25.5-3.9,6.2-21.9,33.7-26.8,36.3-1.1-1.4-1.3-3.5-1.3-5.2,0-4.8,1.3-10.2,5-13.5l.3,3.5c11.5-12.1,21.5-29.2,30.4-43.2-19.6,5-21.7,8.8-37.2,19.7-.7-.9-1-1.9-1-2.9,0-2.7,1.4-5.6,2.7-7.8,4.3-2,8.5-4.2,12.8-6.2,5.9-2.7,11.8-4.8,17.7-7.6,2.9-1.4,6.5-9.4,7.3-12.2-3.5,1.3-7.3,1.6-10.9,1.6h-3.6c-1.9-.9-3.7-1.7-5.6-2.7,7.8-2.6,16-5.5,22.9-10.1v-2.3c0-3.2.1-6.2.1-9.4,0-1.7-.3-3.9-1.4-5.2l-4.3-1.7-1-3c1.3-4.6,8.4-3.3,11.7-4,3.3,1.3,3.6,5.5,4.6,8.3-2.7,1.9-3.2,5.3-3.2,8.8,0,1.9.1,3.6.1,5.2,2.9-1,5.9-1.7,9.1-1.7h.9c2.6-4.9,5-9.9,6.8-15.1l-.4-2.9,2.2-1.6c1.3,1.4,2.9,2.6,4.6,3.5v.4c.1,2.3-7.5,12.7-8.9,16.4.3.6.7,1.4.7,2,0,2.4-3.3,4.5-5.2,5.6-2.6,4.3-4.9,8.8-7.1,13.2,4.6-1.4,9.5-2.4,14.4-3,3.5,2,7.6.1,9.1,5.6-.9,5.6-15.8,4.9-19.3,5.2-1.9,0-3.7.4-5.6,1-6.8,2-10.2,9.9-13.7,15.6,4-2.9,10.9-7.3,15.4-8.9,5.3,1.1,10.1,1.3,13.2,6.3.4.9.9,1.6.9,2.6,0,.6-.1,1-.4,1.6-1,.7-1.3,3-1.3,4.2-.9,11.1-.1,22.5-1.3,33.6l-3,5.5h0Zm-5.8-45.5c-1.3-.3-2.6-.4-4-.4-6.5,0-12.7,4.9-17.1,9.4,1.7,3.7,2.2,15.8,2.2,20.4,0,2.7-.1,5.3-.4,8.1,4.2-1.4,11.4-4.3,15.8-4.3.7,0,1.4.1,2.2.3.4-5,.7-10.1.7-15.3-3.5,1.4-8.9,6.1-11.8,8.5,2.2-2.3,4.3-4.9,5-7.9-1.7.6-3.5,1-5.3,1-1.7,0-4-.3-5.6-1.1,4.6-4,9.2-7.9,15.4-7.9.7,0,1.7.1,2.6.3.3-2.6.6-5.2.6-7.9l-.3-3.2h0Zm-7.3-30.8c-.6,2.6-1.3,5-1.7,7.6,2.3-2.7,4.2-5.8,5.9-9.1l-4.2,1.5h0Zm81.5,47.1c-2,2.7-4.8,5.8-8.2,6.5-9.9-6.5-21.9-10.1-33.3-13.1.3,5.8.6,11.4.6,17.1,0,11.7-.6,24.9-5.9,35.4-3.9-20-4-41-4-61.3,0-7.8.1-15.6.6-23.3.1-3.6.7-7.5.7-11.1,0-2.3-2.2-5.5-3.5-7.1l2.2-1.7c3.3.3,6.5,1.6,9.4,3.5,0,5.3-.3,10.7-.3,16,0,6.5.3,13.1.3,19.6,0,2.2,0,4.5-.1,6.6,8.5.6,16.7,3.9,25.3,3.9h2.5c-2.2-5.2-5.5-10.1-9.5-14-4.8-4.6-11.9-9.2-13.7-15.8,1.1-9.1,6.2-17,9.5-25.3l-14.7,2.9c-2-.6-4-.9-6.1-1v-1.9c6.1-4.8,18.7-10.4,26.5-10.4,4.5,0,8.1,1.7,10.9,5l-.3,4.5c-9.9,4.6-14.8,15.1-20.7,23.6,1.9,4.3,9.9,9.8,13.7,13.1,5.9,5,18.1,19.3,18.1,27.2v1.1h0Z"/>
</svg>