<?xml version="1.0" encoding="utf-8"?>
<!-- Generator: Adobe Illustrator 27.5.0, SVG Export Plug-In . SVG Version: 6.00 Build 0)  -->
<svg version="1.1" id="_レイヤー_1" xmlns="http://www.w3.org/2000/svg" xmlns:xlink="http://www.w3.org/1999/xlink" x="0px"
	 y="0px" viewBox="0 0 300 300" style="enable-background:new 0 0 300 300;" xml:space="preserve">
<style type="text/css">
	.st0{fill:#FFFFFF;}
</style>
<path class="st0" d="M62.5,108.3c3.7-0.4,7.2-2,8.4-5.8l-8.3-8.1c0.7-1.2,5-1.9,6.2-1.9c6.3,0,11.9,4.6,16.1,8.9
	c0.4,2,0.6,4.2,0.6,6.2c5.8-0.7,11.4-1.6,17-2.6c2.2-0.4,5.3-1.4,7.3-1.4c6.3,0,27.6,1.4,27.6,10.7c0,2.6-2.6,3.6-4.8,3.6
	c-3.6,0-8.1-1.6-11.7-2.2c-6.5-1.2-13.2-1.2-19.7-1.2s-13,0.3-19.3,1.3c-15.4,2.6-46.1,12.5-59.3,20.4l-3.9-1.3l-3.9-7.1
	c1.4-2.2,3.5-4.5,5.9-5.2l4.6,3.9c15.1-6.3,30.8-11.7,46.8-15.7L62.5,108.3L62.5,108.3z M26.9,181.6l3.2,4.5
	c5.3-2.2,11.2-4.8,15.8-8.4c-1.9,3.6-3.9,7.5-6.3,10.8c-1.3,1.7-3,3.3-4.2,5c-2.9,4.6-2.6,8.2-8.4,10.7c-3.9-2.7-4.8-8.8-5.2-13.1
	L26.9,181.6L26.9,181.6z M67.7,165.3h-0.3c-1.3,0-1.7-2.2-1.7-3c0-1.7,0.7-3.3,1.7-4.5c11.4-5.8,19.2-11.9,25.2-23.2
	c-1.2-0.3-2.4-0.3-3.7-0.3c-8.1,0-24.8,4.8-30.1,10.9c-3.7,1.1-2.7,11.4-6,13.5H52c-3,0-5.2-3.6-5.2-6.3c0-5.9,2.5-12.1,6.5-16.3
	l2.9,4.8c10.4-7.5,26.6-13,39.5-13h1.3c3.5,0,6.8,0.1,9.8,2.3c1.6,1.1,3.9,3.9,3.9,5.9c0,1.7-0.7,3.3-1.7,4.6
	c-8.3,1-15,6.5-20.6,12.2c1.6,0.7,4.9,2.2,5.5,4c-1,4.2-7.9,6.3-11.5,7.5c0.7,7.6,1,15.4,1.7,23.2c0.3,2.2,1,4.6,1,6.6
	c0,1.6-0.1,3.3-0.1,4.9c-0.3,4.3-8.6,12.1-12.2,14c-1-0.3-1.9-0.7-2.6-1.4c-2.6-2.3-3.9-5.5-6.2-7.9c-3.9-4.3-8.8-7.2-12.5-11.7
	c5.2,1.4,11.2,3,16.7,3c2.4,0,5-0.6,6.5-2.7c1-4,1-8.5,1-12.5c0-5.5-0.1-10.9-0.1-16.3L67.7,165.3L67.7,165.3z M107.7,188.5
	c3.5,0,6.8-1.1,9.8-2.7c0.3-0.6,0.4-1.1,0.4-1.7c0-4.6-6.9-10.1-10.7-12.1c10.7,0,27.5,8.5,27.5,20.9c0,3.6-0.7,6.1-4.9,6.1
	c-5.8,0-16.7-7.9-23-10.4L107.7,188.5L107.7,188.5z"/>
<path class="st0" d="M213.7,201.2c-0.4,0.1-1,0.3-1.6,0.3c-3,0-4.3-3-4.6-5.8h-2c-5.9,0-11.9,1.3-17.7,2.4l-3,4.3
	c-2.9,0-3.9-7.6-3.9-9.8c0-0.4,0-0.9,0.1-1.4c1-8.4,2.3-17,2.3-25.5c-3.9,6.2-21.9,33.7-26.8,36.3c-1.1-1.4-1.3-3.5-1.3-5.2
	c0-4.8,1.3-10.2,5-13.5l0.3,3.5c11.5-12.1,21.5-29.2,30.4-43.2c-19.6,5-21.7,8.8-37.2,19.7c-0.7-0.9-1-1.9-1-2.9
	c0-2.7,1.4-5.6,2.7-7.8c4.3-2,8.5-4.2,12.8-6.2c5.9-2.7,11.8-4.8,17.7-7.6c2.9-1.4,6.5-9.4,7.3-12.2c-3.5,1.3-7.3,1.6-10.9,1.6h-3.6
	c-1.9-0.9-3.7-1.7-5.6-2.7c7.8-2.6,16-5.5,22.9-10.1v-2.3c0-3.2,0.1-6.2,0.1-9.4c0-1.7-0.3-3.9-1.4-5.2l-4.3-1.7l-1-3
	c1.3-4.6,8.4-3.3,11.7-4c3.3,1.3,3.6,5.5,4.6,8.3c-2.7,1.9-3.2,5.3-3.2,8.8c0,1.9,0.1,3.6,0.1,5.2c2.9-1,5.9-1.7,9.1-1.7h0.9
	c2.6-4.9,5-9.9,6.8-15.1l-0.4-2.9l2.2-1.6c1.3,1.4,2.9,2.6,4.6,3.5v0.4c0.1,2.3-7.5,12.7-8.9,16.4c0.3,0.6,0.7,1.4,0.7,2
	c0,2.4-3.3,4.5-5.2,5.6c-2.6,4.3-4.9,8.8-7.1,13.2c4.6-1.4,9.5-2.4,14.4-3c3.5,2,7.6,0.1,9.1,5.6c-0.9,5.6-15.8,4.9-19.3,5.2
	c-1.9,0-3.7,0.4-5.6,1c-6.8,2-10.2,9.9-13.7,15.6c4-2.9,10.9-7.3,15.4-8.9c5.3,1.1,10.1,1.3,13.2,6.3c0.4,0.9,0.9,1.6,0.9,2.6
	c0,0.6-0.1,1-0.4,1.6c-1,0.7-1.3,3-1.3,4.2c-0.9,11.1-0.1,22.5-1.3,33.6L213.7,201.2L213.7,201.2z M207.9,155.7
	c-1.3-0.3-2.6-0.4-4-0.4c-6.5,0-12.7,4.9-17.1,9.4c1.7,3.7,2.2,15.8,2.2,20.4c0,2.7-0.1,5.3-0.4,8.1c4.2-1.4,11.4-4.3,15.8-4.3
	c0.7,0,1.4,0.1,2.2,0.3c0.4-5,0.7-10.1,0.7-15.3c-3.5,1.4-8.9,6.1-11.8,8.5c2.2-2.3,4.3-4.9,5-7.9c-1.7,0.6-3.5,1-5.3,1
	c-1.7,0-4-0.3-5.6-1.1c4.6-4,9.2-7.9,15.4-7.9c0.7,0,1.7,0.1,2.6,0.3c0.3-2.6,0.6-5.2,0.6-7.9L207.9,155.7L207.9,155.7z
	 M200.6,124.9c-0.6,2.6-1.3,5-1.7,7.6c2.3-2.7,4.2-5.8,5.9-9.1L200.6,124.9L200.6,124.9z M282.1,172c-2,2.7-4.8,5.8-8.2,6.5
	c-9.9-6.5-21.9-10.1-33.3-13.1c0.3,5.8,0.6,11.4,0.6,17.1c0,11.7-0.6,24.9-5.9,35.4c-3.9-20-4-41-4-61.3c0-7.8,0.1-15.6,0.6-23.3
	c0.1-3.6,0.7-7.5,0.7-11.1c0-2.3-2.2-5.5-3.5-7.1l2.2-1.7c3.3,0.3,6.5,1.6,9.4,3.5c0,5.3-0.3,10.7-0.3,16c0,6.5,0.3,13.1,0.3,19.6
	c0,2.2,0,4.5-0.1,6.6c8.5,0.6,16.7,3.9,25.3,3.9h2.5c-2.2-5.2-5.5-10.1-9.5-14c-4.8-4.6-11.9-9.2-13.7-15.8c1.1-9.1,6.2-17,9.5-25.3
	l-14.7,2.9c-2-0.6-4-0.9-6.1-1v-1.9c6.1-4.8,18.7-10.4,26.5-10.4c4.5,0,8.1,1.7,10.9,5l-0.3,4.5c-9.9,4.6-14.8,15.1-20.7,23.6
	c1.9,4.3,9.9,9.8,13.7,13.1c5.9,5,18.1,19.3,18.1,27.2V172L282.1,172z"/>
</svg>
